<?xml version="1.0" standalone="no"?><!DOCTYPE svg PUBLIC "-//W3C//DTD SVG 1.1//EN" "http://www.w3.org/Graphics/SVG/1.1/DTD/svg11.dtd"><svg class="icon" height="512" viewBox="0 0 1024 1024" version="1.1" xmlns="http://www.w3.org/2000/svg"><path d="M832.695 329.74c7.608 25.654 11.649 52.476 11.649 80.084 0 184.109-179.502 333.358-400.93 333.358-46.285 0-90.732-6.534-132.098-18.532l62.875-38.71c20.994 3.431 42.573 5.437 64.718 5.437 194.06 0 351.378-137.662 351.378-307.455 0-169.803-157.317-307.455-351.378-307.455S87.532 214.118 87.532 383.921c0 98.367 53.002 185.719 135.145 242.012v153.288l79.191-48.755c64.101 74.732 166.19 123.084 281.196 123.084 22.147 0 43.725-2.006 64.718-5.446l151.515 93.291V788.116c82.142-56.302 135.144-143.645 135.144-242.021 0-84.374-38.854-160.8-101.746-216.355z m-218.096 17.017c22.397 0 40.542 18.16 40.542 40.534 0 22.392-18.145 40.553-40.542 40.553s-40.544-18.161-40.544-40.553c-0.001-22.375 18.147-40.534 40.544-40.534z m-162.174 0c22.397 0 40.542 18.16 40.542 40.534 0 22.392-18.145 40.553-40.542 40.553-22.396 0-40.543-18.161-40.543-40.553 0-22.375 18.147-40.534 40.543-40.534z m-202.717 40.534c0-22.375 18.146-40.534 40.543-40.534 22.396 0 40.543 18.16 40.543 40.534 0 22.392-18.147 40.553-40.543 40.553-22.397 0-40.543-18.161-40.543-40.553z" /></svg>